<svg xmlns="http://www.w3.org/2000/svg" width="664.802" height="240" viewBox="0 0 664.802 240"><linearGradient id="a" gradientUnits="userSpaceOnUse" x1="135.526" y1="50.328" x2="442.252" y2="50.328"><stop offset=".344" stop-color="#e25a0e"/><stop offset=".694" stop-color="#ed8e06"/></linearGradient><path d="M288.172 50.092V38.166l-152.646 62.49 152.646-50.564zm58.182 7.173v6.359l58.522-36.563.037-.037L442.252 0l-95.898 57.265z" fill="url(#a)"/><linearGradient id="b" gradientUnits="userSpaceOnUse" x1="256.223" y1="133.506" x2="389.312" y2="133.506"><stop offset="0" stop-color="#ed8e06"/><stop offset=".084" stop-color="#eb8507"/><stop offset=".222" stop-color="#e66b0b"/><stop offset=".301" stop-color="#e25a0e"/><stop offset=".652" stop-color="#e25a0e"/><stop offset=".994" stop-color="#ed8e06"/></linearGradient><path d="M385.615 108.8l-49.28-31.535-78.226 48.208s.924 2.773 3.734 6.174l.037.037c5.286 4.436 13.974 8.687 27.837 8.687 12.052 0 28.06 2.662 39.78 6.692.073 0 .11 0 .147.037 11.534 2.514 19.113 6.95 19.113 14.122 0 12.828-21.442 14.233-31.24 13.9h-.073c-.406 0-.776 0-1.146-.037-3.66-.221-11.275-1.183-20.26-3.4-.073 0-.147-.038-.258-.075-13.05-3.253-28.872-9.094-39.557-18.965v24.326s77.746 31.978 133.089-5.25v-60.555l-3.697-2.366zm-58.559 20.961c-9.612 0-17.412-5.989-17.412-13.345 0-7.394 7.8-13.383 17.412-13.383 9.612 0 17.413 5.989 17.413 13.383 0 7.356-7.8 13.345-17.413 13.345z" fill="url(#b)"/><path d="M161.124 236.003H151.4l1.493-18.755c.045-.671-.116-1.21-.486-1.614-.372-.404-.904-.606-1.597-.606-.674 0-1.222.195-1.65.588-.43.394-.666.928-.713 1.6l-1.632 20.35c-.047.672.097 1.196.433 1.564.336.372.852.556 1.547.556h12.085c1.482 0 2.224-.66 2.224-1.979 0-.534-.175-.949-.521-1.252-.347-.3-.834-.452-1.459-.452zm21.534-21.047c-.603 0-1.16.292-1.668.87l-7.466 8.996-6.044-8.928c-.417-.577-.926-.866-1.529-.866-.554 0-1.065.22-1.527.66-.464.437-.695.936-.695 1.492 0 .346.126.718.383 1.112l6.98 10.14-.73 9.203c-.046.719.127 1.275.522 1.668.394.394.914.592 1.562.592s1.193-.191 1.634-.574c.438-.382.682-.931.729-1.65l.763-9.238 8.476-10.073c.393-.462.59-.95.59-1.458 0-.531-.197-.99-.59-1.372a1.932 1.932 0 0 0-1.39-.574zm21.444.574c-1.353-.426-2.84-.643-4.462-.643-2.5 0-4.69.552-6.565 1.65-1.874 1.101-3.321 2.668-4.341 4.708-1.018 2.036-1.528 4.397-1.528 7.083 0 2.386.452 4.459 1.354 6.217.905 1.762 2.194 3.108 3.874 4.047 1.677.939 3.652 1.408 5.921 1.408 1.597 0 3.085-.235 4.462-.697s2.508-1.065 3.387-1.805c.603-.462.904-1.043.904-1.736 0-.463-.139-.856-.417-1.181s-.637-.487-1.078-.487c-.346 0-.718.115-1.11.346-1.922 1.275-3.879 1.91-5.87 1.91-2.2 0-3.896-.686-5.089-2.065-1.193-1.376-1.789-3.35-1.789-5.92 0-3.059.706-5.46 2.12-7.207 1.411-1.747 3.38-2.625 5.904-2.625 2.246 0 4.203.64 5.869 1.91.348.257.73.383 1.146.383a1.51 1.51 0 0 0 1.199-.538c.312-.357.469-.79.469-1.303 0-.74-.336-1.329-1.007-1.77-.881-.696-1.997-1.256-3.353-1.685zm25.72-.329h-12.607c-.673 0-1.206.184-1.598.556-.395.368-.615.881-.66 1.527l-1.598 20.283c-.047.671.098 1.195.433 1.563.336.372.852.556 1.547.556h12.573c.717 0 1.267-.155 1.648-.47.383-.31.574-.768.574-1.371 0-.51-.173-.92-.521-1.231-.347-.315-.833-.47-1.459-.47H217.84l.556-7.155h9.69c1.458 0 2.187-.614 2.187-1.842 0-.509-.173-.913-.521-1.216-.347-.3-.833-.451-1.459-.451h-9.585l.52-6.737h10.35c1.459 0 2.188-.625 2.188-1.874 0-.509-.168-.917-.504-1.217s-.815-.45-1.44-.45zm-5.21-1.946c.37 0 .706-.137 1.008-.415l2.812-2.675c.394-.372.59-.766.59-1.18 0-.394-.155-.737-.469-1.026a1.56 1.56 0 0 0-1.094-.433c-.532 0-.984.267-1.354.798l-2.258 3.195c-.184.256-.276.52-.276.798s.097.505.294.678c.197.174.446.26.747.26zm28.27 1.946h-12.606c-.674 0-1.206.184-1.598.556-.395.368-.616.881-.66 1.527l-1.598 20.283c-.047.671.097 1.195.433 1.563.336.372.852.556 1.547.556h12.573c.716 0 1.267-.155 1.648-.47.382-.31.574-.768.574-1.371 0-.51-.173-.92-.522-1.231-.346-.315-.832-.47-1.458-.47H240.9l.556-7.155h9.69c1.459 0 2.188-.614 2.188-1.842 0-.509-.173-.913-.522-1.216-.346-.3-.832-.451-1.458-.451h-9.586l.52-6.737h10.35c1.46 0 2.189-.625 2.189-1.874 0-.509-.168-.917-.504-1.217s-.816-.45-1.44-.45zm35.636 1.354c-1.76-.903-3.869-1.354-6.322-1.354h-6.807c-.672 0-1.211.184-1.616.556-.404.368-.631.892-.677 1.563l-1.597 20.178c-.047.693.11 1.231.47 1.614.357.383.873.574 1.544.574h7.398c2.754 0 5.11-.52 7.067-1.563 1.957-1.044 3.444-2.542 4.464-4.499 1.018-1.956 1.527-4.31 1.527-7.065 0-2.34-.467-4.365-1.406-6.08-.937-1.71-2.287-3.021-4.045-3.924zm-7.954 19.485h-4.48l1.354-17.193h4.236c2.57 0 4.517.654 5.836 1.96 1.32 1.311 1.979 3.214 1.979 5.716 0 6.343-2.975 9.517-8.925 9.517zm36.19-20.839h-12.608c-.673 0-1.205.184-1.597.556-.395.368-.616.881-.66 1.527l-1.598 20.283c-.047.671.097 1.195.433 1.563.336.372.852.556 1.547.556h12.573c.716 0 1.267-.155 1.648-.47.382-.31.574-.768.574-1.371 0-.51-.174-.92-.522-1.231-.347-.315-.832-.47-1.458-.47H304.77l.556-7.155h9.69c1.458 0 2.188-.614 2.188-1.842 0-.509-.174-.913-.522-1.216-.347-.3-.832-.451-1.458-.451h-9.586l.52-6.737h10.35c1.46 0 2.189-.625 2.189-1.874 0-.509-.168-.917-.504-1.217s-.816-.45-1.44-.45zm21.219.383c-1.459-.466-3.033-.697-4.722-.697-1.97 0-3.694.303-5.176.903-1.482.603-2.623 1.458-3.42 2.57-.8 1.112-1.2 2.408-1.2 3.892 0 1.505.384 2.718 1.147 3.646a7.448 7.448 0 0 0 2.762 2.101c1.076.473 2.459.954 4.15 1.441 1.226.347 2.199.668 2.917.957.717.289 1.314.657 1.789 1.108.475.455.711 1.015.711 1.686 0 1.043-.446 1.849-1.337 2.415-.89.567-2.183.849-3.872.849-1.459 0-2.797-.177-4.011-.538-1.215-.358-2.275-.863-3.18-1.51-.438-.256-.82-.382-1.144-.382-.464 0-.84.18-1.13.538-.288.361-.433.78-.433 1.267 0 .766.336 1.38 1.007 1.841 1.018.719 2.27 1.286 3.751 1.7 1.48.42 3.149.629 5 .629 3.08 0 5.488-.643 7.225-1.928 1.736-1.285 2.605-3.061 2.605-5.332 0-1.412-.37-2.564-1.11-3.455-.743-.892-1.634-1.564-2.676-2.015s-2.408-.92-4.097-1.408c-1.32-.393-2.34-.73-3.057-1.007a5.36 5.36 0 0 1-1.825-1.145c-.498-.487-.745-1.09-.745-1.805 0-1.09.457-1.942 1.372-2.556.913-.61 2.206-.92 3.872-.92 1.18 0 2.316.18 3.404.541 1.087.358 2.015.816 2.778 1.372.463.3.903.451 1.32.451.486 0 .886-.18 1.199-.538.312-.36.467-.783.467-1.27 0-.6-.254-1.109-.763-1.527-.926-.788-2.118-1.412-3.578-1.874zm45.393-.592c-.902 0-1.655.487-2.258 1.458l-8.89 14.622-6.46-14.553c-.465-.993-1.147-1.491-2.05-1.491-.624 0-1.146.202-1.563.606-.417.405-.648.932-.695 1.582l-1.632 20.596c-.046.625.105 1.127.452 1.51.348.382.81.573 1.39.573.577 0 1.065-.187 1.458-.556.394-.372.614-.855.66-1.458l1.111-14.066 5.036 10.835c.255.509.538.88.85 1.112.315.23.69.346 1.13.346.418 0 .793-.115 1.129-.346.336-.231.666-.593.989-1.076l6.739-11.08-1.112 14.206c-.047.625.11 1.127.469 1.51s.829.573 1.406.573c.58 0 1.06-.18 1.442-.538.381-.36.596-.852.643-1.476l1.632-20.734c.047-.65-.105-1.17-.451-1.563-.349-.394-.824-.592-1.425-.592zm24.695.21h-12.607c-.674 0-1.206.183-1.598.555-.395.368-.616.881-.66 1.527l-1.598 20.283c-.047.671.097 1.195.433 1.563.336.372.852.556 1.547.556h12.573c.716 0 1.267-.155 1.648-.47.383-.31.574-.768.574-1.371 0-.51-.173-.92-.522-1.231-.346-.315-.832-.47-1.458-.47h-10.315l.556-7.155h9.69c1.459 0 2.188-.614 2.188-1.842 0-.509-.173-.913-.522-1.216-.346-.3-.832-.451-1.458-.451h-9.586l.52-6.737h10.35c1.46 0 2.189-.625 2.189-1.874 0-.509-.168-.917-.504-1.217s-.816-.45-1.44-.45zm-5.21-1.947c.37 0 .706-.137 1.007-.415l2.813-2.675c.393-.372.59-.766.59-1.18 0-.394-.155-.737-.47-1.026a1.56 1.56 0 0 0-1.093-.433c-.533 0-.984.267-1.354.798l-2.258 3.195c-.185.256-.277.52-.277.798s.098.505.295.678c.196.174.446.26.747.26zm30.144 1.946h-17.087c-1.483 0-2.223.66-2.223 1.979 0 .556.168.978.504 1.267.336.292.827.437 1.477.437h6.285l-1.493 18.751c-.047.675.121 1.213.504 1.618.38.404.908.606 1.58.606s1.227-.195 1.667-.588c.439-.394.683-.928.73-1.6l1.492-18.787h6.322c1.482 0 2.222-.65 2.222-1.946 0-.556-.168-.986-.504-1.286s-.828-.45-1.476-.45zm9.587-.173c-.673 0-1.222.195-1.65.588-.43.394-.666.928-.713 1.6l-1.632 20.42c-.047.696.121 1.245.504 1.65.382.407.908.61 1.58.61s1.221-.203 1.65-.61c.427-.405.676-.943.746-1.615l1.598-20.423c.045-.671-.12-1.21-.504-1.614-.382-.404-.91-.606-1.58-.606zm24.831.173h-12.607c-.673 0-1.206.184-1.597.556-.396.368-.616.881-.661 1.527l-1.597 20.283c-.047.671.097 1.195.433 1.563.335.372.852.556 1.547.556h12.572c.717 0 1.268-.155 1.649-.47.382-.31.574-.768.574-1.371 0-.51-.174-.92-.522-1.231-.347-.315-.832-.47-1.459-.47h-10.314l.556-7.155h9.69c1.458 0 2.188-.614 2.188-1.842 0-.509-.174-.913-.522-1.216-.347-.3-.832-.451-1.459-.451H456.3l.52-6.737h10.35c1.46 0 2.188-.625 2.188-1.874 0-.509-.167-.917-.503-1.217s-.816-.45-1.44-.45zm27.16 6.842c0-2.152-.69-3.83-2.067-5.037-1.377-1.202-3.328-1.805-5.852-1.805h-8.751c-.672 0-1.211.184-1.616.556-.404.368-.632.892-.677 1.563l-1.597 20.315c-.047.697.115 1.246.485 1.65.37.408.892.61 1.564.61s1.22-.202 1.65-.61c.427-.404.666-.942.71-1.614l.591-7.812h3.37c.856 0 1.54.148 2.049.451.51.3.95.82 1.32 1.56l3.438 6.809c.208.44.491.765.85.97.36.21.735.315 1.13.315a2.4 2.4 0 0 0 1.598-.592c.462-.394.693-.867.693-1.423 0-.325-.08-.635-.242-.938l-2.57-4.932c-.37-.74-.764-1.314-1.18-1.718a3.45 3.45 0 0 0-1.495-.852c4.399-.647 6.6-3.138 6.6-7.466zm-9.029 4.375h-6.253l.59-7.744h6.253c1.435 0 2.5.296 3.195.885.695.592 1.042 1.498 1.042 2.725 0 2.759-1.61 4.134-4.827 4.134zm25.248-7.99c1.18 0 2.316.181 3.405.542 1.087.358 2.014.816 2.778 1.372.462.3.903.451 1.32.451.485 0 .886-.18 1.198-.538.312-.36.468-.783.468-1.27 0-.6-.255-1.109-.764-1.527-.926-.788-2.117-1.412-3.578-1.874-1.458-.466-3.032-.697-4.722-.697-1.97 0-3.693.303-5.175.903-1.482.603-2.623 1.458-3.421 2.57-.8 1.112-1.199 2.408-1.199 3.892 0 1.505.383 2.718 1.147 3.646A7.448 7.448 0 0 0 505.01 228c1.075.473 2.458.954 4.15 1.441 1.225.347 2.198.668 2.917.957.716.289 1.314.657 1.789 1.108.474.455.71 1.015.71 1.686 0 1.043-.445 1.849-1.337 2.415-.89.567-2.182.849-3.872.849-1.458 0-2.796-.177-4.01-.538-1.216-.358-2.275-.863-3.18-1.51-.438-.256-.821-.382-1.144-.382-.464 0-.841.18-1.13.538-.289.361-.433.78-.433 1.267 0 .766.335 1.38 1.007 1.841 1.018.719 2.269 1.286 3.75 1.7 1.481.42 3.15.629 5.001.629 3.08 0 5.488-.643 7.224-1.928 1.737-1.285 2.605-3.061 2.605-5.332 0-1.412-.37-2.564-1.11-3.455-.742-.892-1.634-1.564-2.675-2.015s-2.408-.92-4.098-1.408c-1.32-.393-2.34-.73-3.056-1.007a5.36 5.36 0 0 1-1.825-1.145c-.498-.487-.746-1.09-.746-1.805 0-1.09.457-1.942 1.372-2.556.914-.61 2.206-.92 3.872-.92zM335.412 54.382l-.482-.295c.37 2.366.925 5.286 1.701 8.54-.924-5.102-1.22-8.245-1.22-8.245z" fill="#e25a0e"/><path fill="none" d="M300.106 34.714l-6.137-4.178"/><path d="M222.939 179.12h8.816v-47.107h-8.816v47.107zm-80.951-17.9l-23.082-29.207h-7.2v47.107h8.882v-31.763l24.765 31.832v-.069h5.518v-47.175h-8.883v29.275zm65.68-13.596c0-8.14-5.856-15.546-16.96-15.61-7.471 0-14.94-.07-22.41-.07v47.176h8.883v-15.748h8.547l13.728 15.748h10.566v-.606l-14.266-16.084c8.95-1.816 11.912-8.343 11.912-14.806zm-30.487 7.74v-15.076h13.527c5.586 0 8.075 3.77 8.075 7.538 0 3.77-2.423 7.539-8.075 7.539h-13.527zM58.275 179.12H93.54v-8.747H67.091v-10.636h25.507v-8.275H67.09v-10.834h26.45v-8.615H58.274v47.107zm-26.241-27.189H8.883v-19.853H0v47.11h8.883v-19.047h23.15v19.048h8.817v-47.11h-8.816v19.852zm314.32-88.307v5.804l58.522-42.367-58.522 36.563zm41.036 88.356c-5.963-2.213-24.924-10.11-44.634-26.85 2.214-2.476 3.542-5.478 3.542-8.733 0-8.383-8.641-15.204-19.26-15.204-2.22 0-4.318.357-6.303.905-2.59-3.347-5.13-6.824-7.534-10.576l23.134-14.257 4.706 3.012c5.498 17.543 16.055 39.61 35.997 51.592-18.37-12.833-29.084-33.407-35.254-51.117l43.831 28.048v-1.331L341.206 79.05a170.38 170.38 0 0 1-4.353-15.316 153.538 153.538 0 0 0 3.67 14.88l-7.885-5.047-22.101 13.62a147.149 147.149 0 0 1-10.431-21.346V34.714l-6.137-4.178v29.169c4.162 10.589 9.18 20.065 14.663 28.657l-54.22 33.414s1.7 5.065 7.43 9.87c-2.809-3.4-3.733-6.173-3.733-6.173l53.313-32.855c2.414 3.538 4.93 6.846 7.485 10.047-6.552 2.43-11.129 7.65-11.129 13.732 0 8.385 8.64 15.205 19.26 15.205 5.864 0 11.06-2.125 14.596-5.4 18.94 16.254 37.339 25.263 46.717 29.179l22.92-15.268-21.959 12.532s-.665-.222-1.922-.665zm-60.353-24.075c-8.581 0-15.562-5.163-15.562-11.508 0-4.856 4.104-8.998 9.87-10.684a174.134 174.134 0 0 0 17.518 18.078c-2.858 2.494-7.07 4.114-11.826 4.114zm12.946-5.138a153.4 153.4 0 0 1-16.777-17.483c1.233-.232 2.502-.394 3.831-.394 8.582 0 15.564 5.162 15.564 11.507 0 2.356-.969 4.544-2.618 6.37zm241.238 56.353h35.265v-8.747h-26.448v-10.636h25.506v-8.275h-25.506v-10.834h26.448v-8.615h-35.265v47.107zm-24.29-17.9l-23.08-29.207h-7.2v47.107h8.883v-31.763l24.762 31.832v-.069h5.52v-47.175h-8.884v29.275zm-304.405-12.272v24.326s1.294.554 3.697 1.405v-22.034c10.685 9.87 26.507 15.712 39.557 18.965-3.29-1.22-6.876-2.735-10.98-4.51-8.355-3.549-19.74-9.205-32.274-18.152zm412.276-16.935h-36.207v8.344h23.286l-23.892 33.647v5.116h36.813v-8.412h-24.43l24.43-34.525v-4.17zM475.036 179.12h35.265v-8.747h-26.448v-10.636h25.506v-8.275h-25.506v-10.834H510.3v-8.615h-35.265v47.107zm-33.106-28.802c-5.653-.676-10.498-1.816-10.498-5.925 0-3.498 3.162-6.257 9.758-6.257 5.114 0 9.557 2.557 11.17 5.25l7.067-3.636c-3.567-7.267-11.172-9.354-18.508-9.354-8.68.069-18.237 4.04-18.237 13.73 0 10.564 8.883 13.123 18.508 14.268 6.259.671 10.901 2.487 10.901 6.931 0 5.112-5.249 7.066-10.834 7.066-5.72 0-11.172-2.29-13.259-7.47l-7.4 3.834c3.498 8.614 10.9 11.578 20.524 11.578 10.498 0 19.786-4.509 19.786-15.008 0-11.238-9.152-13.798-18.978-15.007z" fill="#0167b1"/><linearGradient id="c" gradientUnits="userSpaceOnUse" x1="300.106" y1="77.524" x2="540.515" y2="77.524"><stop offset="0" stop-color="#e25a0e"/><stop offset=".376" stop-color="#e25a0e"/><stop offset=".728" stop-color="#ed8e06"/></linearGradient><path d="M342.546 28.133V2.403L311.53 18.115l15.527 23.882 15.49-13.864zm-5.25-14.64v14.345l-8.65 7.69-8.614-13.273 17.265-8.761zm50.094 123.403c-3.623-1.33-7.025-2.957-10.167-4.88-.074 0-.148-.037-.185-.147-27.135-16.304-36.932-51.313-40.185-68.134l-.222-1.11a111.388 111.388 0 0 1-1.7-8.54l-34.825-19.371v31.128c23.475 59.853 76.526 82.145 87.284 86.138 1.257.443 1.922.665 1.922.665l21.96-12.532 79.003-45.103 50.24-28.687-153.125 70.573z" fill="url(#c)"/></svg>